<svg xmlns="http://www.w3.org/2000/svg" width="298" height="71" fill="none"><g filter="url(#a)"><path fill="#fff" d="M289 33.048C289 19.214 277.302 8 262.872 8H34.128C19.698 8 8 19.214 8 33.048c0 13.834 11.698 25.048 26.128 25.048h228.744c14.43 0 26.128-11.214 26.128-25.048Z"/></g><path fill="#2F281E" d="M38.758 27.88V39h-1.824V27.88h1.824Zm5.943 6.704c0-.907.182-1.701.544-2.384a3.967 3.967 0 0 1 1.536-1.6c.651-.373 1.398-.56 2.24-.56 1.067 0 1.947.256 2.64.768.704.501 1.179 1.221 1.424 2.16h-1.968a2.081 2.081 0 0 0-.768-1.024c-.352-.245-.794-.368-1.328-.368-.746 0-1.344.267-1.792.8-.437.523-.656 1.259-.656 2.208 0 .95.219 1.69.656 2.224.448.533 1.046.8 1.792.8 1.056 0 1.755-.464 2.096-1.392h1.968c-.256.896-.736 1.61-1.44 2.144-.704.523-1.578.784-2.624.784-.842 0-1.589-.187-2.24-.56a4.105 4.105 0 0 1-1.536-1.6c-.362-.693-.544-1.493-.544-2.4Zm9.594-.032c0-.885.181-1.67.544-2.352a4.063 4.063 0 0 1 3.616-2.16c.694 0 1.296.139 1.808.416.523.267.939.603 1.248 1.008v-1.28h1.84V39h-1.84v-1.312c-.31.416-.73.763-1.264 1.04-.533.277-1.141.416-1.824.416-.757 0-1.45-.192-2.08-.576a4.276 4.276 0 0 1-1.504-1.632c-.362-.704-.544-1.499-.544-2.384Zm7.216.032c0-.608-.128-1.136-.384-1.584a2.584 2.584 0 0 0-.976-1.024 2.574 2.574 0 0 0-1.312-.352c-.47 0-.907.117-1.312.352-.405.224-.736.56-.992 1.008-.245.437-.368.96-.368 1.568 0 .608.123 1.141.368 1.6.256.459.587.81.992 1.056.416.235.853.352 1.312.352.47 0 .907-.117 1.312-.352s.73-.576.976-1.024c.256-.459.384-.992.384-1.6Zm8.684-4.544c.693 0 1.312.144 1.856.432.555.288.986.715 1.296 1.28.31.565.464 1.248.464 2.048V39h-1.808v-4.928c0-.79-.198-1.392-.592-1.808-.395-.427-.933-.64-1.616-.64s-1.227.213-1.632.64c-.395.416-.592 1.019-.592 1.808V39h-1.824v-8.816h1.824v1.008a3.032 3.032 0 0 1 1.136-.848c.47-.203.965-.304 1.488-.304Zm12.227 1.632v4.88c0 .33.074.57.224.72.16.139.426.208.8.208h1.12V39h-1.44c-.822 0-1.45-.192-1.888-.576-.438-.384-.656-1.008-.656-1.872v-4.88h-1.04v-1.488h1.04v-2.192h1.84v2.192h2.144v1.488h-2.144Zm3.217 2.88c0-.885.181-1.67.544-2.352a4.062 4.062 0 0 1 3.616-2.16c.693 0 1.296.139 1.808.416.522.267.939.603 1.248 1.008v-1.28h1.84V39h-1.84v-1.312c-.31.416-.73.763-1.264 1.04-.533.277-1.141.416-1.824.416-.757 0-1.45-.192-2.08-.576a4.275 4.275 0 0 1-1.504-1.632c-.363-.704-.544-1.499-.544-2.384Zm7.216.032c0-.608-.128-1.136-.384-1.584a2.585 2.585 0 0 0-.976-1.024 2.574 2.574 0 0 0-1.312-.352c-.47 0-.907.117-1.312.352-.405.224-.736.56-.992 1.008-.246.437-.368.96-.368 1.568 0 .608.123 1.141.368 1.6.256.459.587.81.992 1.056.416.235.853.352 1.312.352.47 0 .906-.117 1.312-.352.405-.235.73-.576.976-1.024.256-.459.384-.992.384-1.6Zm7.724.016 4.064 4.4h-2.464l-3.264-3.792V39H97.09V27.16h1.824v6.88l3.2-3.856h2.528l-4.064 4.416Zm13.451-.224c0 .33-.021.63-.064.896h-6.736c.053.704.315 1.27.784 1.696.469.427 1.045.64 1.728.64.981 0 1.675-.41 2.08-1.232h1.968a4 4 0 0 1-1.456 2c-.693.512-1.557.768-2.592.768-.843 0-1.6-.187-2.272-.56a4.187 4.187 0 0 1-1.568-1.6c-.373-.693-.56-1.493-.56-2.4 0-.907.181-1.701.544-2.384a3.936 3.936 0 0 1 1.552-1.6c.672-.373 1.44-.56 2.304-.56.832 0 1.573.181 2.224.544a3.83 3.83 0 0 1 1.52 1.536c.363.65.544 1.403.544 2.256Zm-1.904-.576c-.011-.672-.251-1.21-.72-1.616-.469-.405-1.051-.608-1.744-.608-.629 0-1.168.203-1.616.608-.448.395-.715.933-.8 1.616h4.88Zm7.247.784c0-.907.182-1.701.544-2.384a3.976 3.976 0 0 1 1.536-1.6c.651-.373 1.398-.56 2.24-.56 1.067 0 1.947.256 2.64.768.704.501 1.179 1.221 1.424 2.16h-1.968a2.081 2.081 0 0 0-.768-1.024c-.352-.245-.794-.368-1.328-.368-.746 0-1.344.267-1.792.8-.437.523-.656 1.259-.656 2.208 0 .95.219 1.69.656 2.224.448.533 1.046.8 1.792.8 1.056 0 1.755-.464 2.096-1.392h1.968c-.256.896-.736 1.61-1.44 2.144-.704.523-1.578.784-2.624.784-.842 0-1.589-.187-2.24-.56a4.115 4.115 0 0 1-1.536-1.6c-.362-.693-.544-1.493-.544-2.4Zm9.594-.032c0-.885.181-1.67.544-2.352a4.063 4.063 0 0 1 3.616-2.16c.693 0 1.296.139 1.808.416.523.267.939.603 1.248 1.008v-1.28h1.84V39h-1.84v-1.312c-.309.416-.731.763-1.264 1.04s-1.141.416-1.824.416a3.917 3.917 0 0 1-2.08-.576 4.275 4.275 0 0 1-1.504-1.632c-.363-.704-.544-1.499-.544-2.384Zm7.216.032c0-.608-.128-1.136-.384-1.584a2.584 2.584 0 0 0-.976-1.024 2.574 2.574 0 0 0-1.312-.352c-.469 0-.907.117-1.312.352a2.58 2.58 0 0 0-.992 1.008c-.245.437-.368.96-.368 1.568 0 .608.123 1.141.368 1.6.256.459.587.81.992 1.056a2.63 2.63 0 0 0 1.312.352c.469 0 .907-.117 1.312-.352s.731-.576.976-1.024c.256-.459.384-.992.384-1.6Zm6.06-3.12a2.811 2.811 0 0 1 1.056-1.04c.448-.256.976-.384 1.584-.384v1.888h-.464c-.715 0-1.259.181-1.632.544-.363.363-.544.992-.544 1.888V39h-1.824v-8.816h1.824v1.28Zm12.396 2.912c0 .33-.021.63-.064.896h-6.736c.054.704.315 1.27.784 1.696.47.427 1.046.64 1.728.64.982 0 1.675-.41 2.08-1.232h1.968a3.994 3.994 0 0 1-1.456 2c-.693.512-1.557.768-2.592.768-.842 0-1.6-.187-2.272-.56a4.187 4.187 0 0 1-1.568-1.6c-.373-.693-.56-1.493-.56-2.4 0-.907.182-1.701.544-2.384a3.942 3.942 0 0 1 1.552-1.6c.672-.373 1.44-.56 2.304-.56.832 0 1.574.181 2.224.544a3.825 3.825 0 0 1 1.52 1.536c.363.65.544 1.403.544 2.256Zm-1.904-.576c-.01-.672-.25-1.21-.72-1.616-.469-.405-1.05-.608-1.744-.608-.629 0-1.168.203-1.616.608-.448.395-.714.933-.8 1.616h4.88Zm11.68 5.344c-.832 0-1.584-.187-2.256-.56a4.151 4.151 0 0 1-1.584-1.6c-.384-.693-.576-1.493-.576-2.4 0-.896.197-1.69.592-2.384a4.083 4.083 0 0 1 1.616-1.6c.682-.373 1.445-.56 2.288-.56.842 0 1.605.187 2.288.56a4.095 4.095 0 0 1 1.616 1.6c.394.693.592 1.488.592 2.384 0 .896-.203 1.69-.608 2.384a4.256 4.256 0 0 1-1.664 1.616 4.785 4.785 0 0 1-2.304.56Zm0-1.584c.469 0 .906-.112 1.312-.336.416-.224.752-.56 1.008-1.008.256-.448.384-.992.384-1.632 0-.64-.123-1.179-.368-1.616a2.479 2.479 0 0 0-.976-1.008 2.672 2.672 0 0 0-1.312-.336c-.47 0-.907.112-1.312.336-.395.224-.71.56-.944 1.008-.235.437-.352.976-.352 1.616 0 .95.24 1.685.72 2.208.49.512 1.104.768 1.84.768Zm10.075-5.888h-1.632V39h-1.84v-7.328h-1.04v-1.488h1.04v-.624c0-1.013.266-1.75.8-2.208.544-.47 1.392-.704 2.544-.704v1.52c-.555 0-.944.107-1.168.32-.224.203-.336.56-.336 1.072v.624h1.632v1.488Zm13.709-1.488-5.408 12.96h-1.888l1.792-4.288-3.472-8.672h2.032l2.48 6.72 2.576-6.72h1.888Zm5.2 8.96c-.832 0-1.584-.187-2.256-.56a4.151 4.151 0 0 1-1.584-1.6c-.384-.693-.576-1.493-.576-2.4 0-.896.197-1.69.592-2.384a4.09 4.09 0 0 1 1.616-1.6c.683-.373 1.445-.56 2.288-.56.843 0 1.605.187 2.288.56a4.09 4.09 0 0 1 1.616 1.6c.395.693.592 1.488.592 2.384 0 .896-.203 1.69-.608 2.384a4.25 4.25 0 0 1-1.664 1.616 4.78 4.78 0 0 1-2.304.56Zm0-1.584a2.67 2.67 0 0 0 1.312-.336c.416-.224.752-.56 1.008-1.008.256-.448.384-.992.384-1.632 0-.64-.123-1.179-.368-1.616a2.473 2.473 0 0 0-.976-1.008 2.67 2.67 0 0 0-1.312-.336 2.67 2.67 0 0 0-1.312.336c-.395.224-.709.56-.944 1.008-.235.437-.352.976-.352 1.616 0 .95.24 1.685.72 2.208.491.512 1.104.768 1.84.768Zm14.363-7.376V39h-1.824v-1.04c-.288.363-.667.65-1.136.864a3.6 3.6 0 0 1-1.472.304c-.693 0-1.317-.144-1.872-.432a3.184 3.184 0 0 1-1.296-1.28c-.309-.565-.464-1.248-.464-2.048v-5.184h1.808v4.912c0 .79.197 1.397.592 1.824.395.416.933.624 1.616.624s1.221-.208 1.616-.624c.405-.427.608-1.035.608-1.824v-4.912h1.824Zm4.231 1.28a2.811 2.811 0 0 1 1.056-1.04c.448-.256.976-.384 1.584-.384v1.888h-.464c-.715 0-1.259.181-1.632.544-.363.363-.544.992-.544 1.888V39h-1.824v-8.816h1.824v1.28Zm10.297.016c.309-.405.73-.747 1.264-1.024.533-.277 1.136-.416 1.808-.416.768 0 1.466.192 2.096.576a3.92 3.92 0 0 1 1.504 1.584c.362.683.544 1.467.544 2.352 0 .885-.182 1.68-.544 2.384a4.12 4.12 0 0 1-1.504 1.632 3.947 3.947 0 0 1-2.096.576c-.672 0-1.27-.133-1.792-.4a4.099 4.099 0 0 1-1.28-1.024v5.472h-1.824V30.184h1.824v1.296Zm5.36 3.072c0-.608-.128-1.13-.384-1.568a2.447 2.447 0 0 0-.992-1.008 2.577 2.577 0 0 0-1.312-.352 2.63 2.63 0 0 0-1.312.352 2.691 2.691 0 0 0-.992 1.024c-.246.448-.368.976-.368 1.584 0 .608.122 1.141.368 1.6.256.448.586.79.992 1.024a2.63 2.63 0 0 0 1.312.352c.469 0 .906-.117 1.312-.352.416-.245.746-.597.992-1.056.256-.459.384-.992.384-1.6Zm4.587-5.536c-.33 0-.608-.112-.832-.336a1.13 1.13 0 0 1-.336-.832c0-.33.112-.608.336-.832.224-.224.502-.336.832-.336.32 0 .592.112.816.336.224.224.336.501.336.832 0 .33-.112.608-.336.832a1.11 1.11 0 0 1-.816.336Zm.896 1.168V39h-1.824v-8.816h1.824Zm4.523 1.488v4.88c0 .33.075.57.224.72.16.139.427.208.8.208h1.12V39h-1.44c-.821 0-1.451-.192-1.888-.576-.437-.384-.656-1.008-.656-1.872v-4.88h-1.04v-1.488h1.04v-2.192h1.84v2.192h2.144v1.488h-2.144Zm3.217 2.912c0-.907.182-1.701.544-2.384a3.976 3.976 0 0 1 1.536-1.6c.651-.373 1.398-.56 2.24-.56 1.067 0 1.947.256 2.64.768.704.501 1.179 1.221 1.424 2.16h-1.968a2.081 2.081 0 0 0-.768-1.024c-.352-.245-.794-.368-1.328-.368-.746 0-1.344.267-1.792.8-.437.523-.656 1.259-.656 2.208 0 .95.219 1.69.656 2.224.448.533 1.046.8 1.792.8 1.056 0 1.755-.464 2.096-1.392h1.968c-.256.896-.736 1.61-1.44 2.144-.704.523-1.578.784-2.624.784-.842 0-1.589-.187-2.24-.56a4.115 4.115 0 0 1-1.536-1.6c-.362-.693-.544-1.493-.544-2.4Zm14.762-4.544c.672 0 1.269.144 1.792.432.533.288.949.715 1.248 1.28.309.565.464 1.248.464 2.048V39h-1.808v-4.928c0-.79-.197-1.392-.592-1.808-.395-.427-.933-.64-1.616-.64s-1.227.213-1.632.64c-.395.416-.592 1.019-.592 1.808V39h-1.824V27.16h1.824v4.048a3.072 3.072 0 0 1 1.168-.864 3.99 3.99 0 0 1 1.568-.304Z"/><defs><filter id="a" width="301" height="70.096" x="0" y="0" color-interpolation-filters="sRGB" filterUnits="userSpaceOnUse"><feFlood flood-opacity="0" result="BackgroundImageFix"/><feColorMatrix in="SourceAlpha" result="hardAlpha" values="0 0 0 0 0 0 0 0 0 0 0 0 0 0 0 0 0 0 127 0"/><feOffset dx="2" dy="2"/><feGaussianBlur stdDeviation="5"/><feColorMatrix values="0 0 0 0 0.0901961 0 0 0 0 0.227451 0 0 0 0 0.337255 0 0 0 0.15 0"/><feBlend in2="BackgroundImageFix" result="effect1_dropShadow_5611_9"/><feBlend in="SourceGraphic" in2="effect1_dropShadow_5611_9" result="shape"/></filter></defs></svg>